PathFileType	4	(X/Y/Z)	C:\Users\Basilio\Documents\Thesis Gigler\squatting_fais\c3dfiles\054\SLS_front_pre1\markers_experimental.trc
DataRate	CameraRate	NumFrames	NumMarkers	Units	OrigDataRate	OrigDataStartFrame	OrigNumFrames
200.000000	200.000000	4	61	mm	200.000000	0	1342
Frame#	Time	FHD			LBHD			RBHD			C7			T10			CLAV			LSHO			LUUPA			LMUPA			LDUPA			LLEP			LMEP			LRAD			LUL			LRFIN			RSHO			RUPA1			RMUPA			RDUPA			RLEP			RMEP			RRAD			RUL			RUFIN			LASI			RASI			USACR			LSACR			RSACR			LTHI1			LTHI2			LTHI3			LTHI4			LLFC			LMFC			LTIB1			LTIB2			LTIB3			LTIB4			LLMAL			LMMAL			LHEE			LMT1			LMT2			LMT5			RTHI			RTHI2			RTHI3			RTHI4			RLFC			RMFC			RTIB1			RTIB2			RTIB3			RTIB4			RLMAL			RMMAL			RHEE			RMT1			RMT2			RMT5			
		X1	Y1	Z1	X2	Y2	Z2	X3	Y3	Z3	X4	Y4	Z4	X5	Y5	Z5	X6	Y6	Z6	X7	Y7	Z7	X8	Y8	Z8	X9	Y9	Z9	X10	Y10	Z10	X11	Y11	Z11	X12	Y12	Z12	X13	Y13	Z13	X14	Y14	Z14	X15	Y15	Z15	X16	Y16	Z16	X17	Y17	Z17	X18	Y18	Z18	X19	Y19	Z19	X20	Y20	Z20	X21	Y21	Z21	X22	Y22	Z22	X23	Y23	Z23	X24	Y24	Z24	X25	Y25	Z25	X26	Y26	Z26	X27	Y27	Z27	X28	Y28	Z28	X29	Y29	Z29	X30	Y30	Z30	X31	Y31	Z31	X32	Y32	Z32	X33	Y33	Z33	X34	Y34	Z34	X35	Y35	Z35	X36	Y36	Z36	X37	Y37	Z37	X38	Y38	Z38	X39	Y39	Z39	X40	Y40	Z40	X41	Y41	Z41	X42	Y42	Z42	X43	Y43	Z43	X44	Y44	Z44	X45	Y45	Z45	X46	Y46	Z46	X47	Y47	Z47	X48	Y48	Z48	X49	Y49	Z49	X50	Y50	Z50	X51	Y51	Z51	X52	Y52	Z52	X53	Y53	Z53	X54	Y54	Z54	X55	Y55	Z55	X56	Y56	Z56	X57	Y57	Z57	X58	Y58	Z58	X59	Y59	Z59	X60	Y60	Z60	X61	Y61	Z61	

1	0	-146.5589141845703	1794.625366210938	-903.915222167969	-311.5185241699219	1728.17724609375	-958.013122558594	-312.7645874023438	1728.5087890625	-817.6230468750002	-342.4840393066407	1562.593505859375	-880.815124511719	-359.9435119628907	1229.710571289063	-883.8132324218752	-197.8462524414063	1507.364501953125	-886.8135986328127	-267.8934936523438	1543.815551757813	-1052.78173828125	-286.9472961425782	1311.3212890625	-1159.330688476563	-240.2300720214844	1297.793090820313	-1148.826416015625	-267.4455871582032	1244.70751953125	-1159.61767578125	-246.7770538330079	1196.926879882813	-1156.120483398438	-291.3977050781251	1175.44384765625	-1089.9130859375	-127.42529296875	964.2451782226565	-1108.80029296875	-162.3232116699219	943.474304199219	-1175.713623046875	-83.02883148193361	886.7381591796877	-1129.3095703125	-257.4100036621094	1547.361083984375	-718.3389892578126	-260.5713806152344	1315.654541015625	-602.3500366210939	-218.2528991699219	1296.669555664063	-614.3758544921876	-250.4508514404297	1246.476806640625	-601.2016601562501	-242.2388458251954	1206.620361328125	-606.1085815429689	-282.2822265625001	1190.263549804688	-673.0592651367189	-105.4808807373047	964.7004394531252	-646.2683715820314	-159.6763305664063	956.9224853515627	-588.7360839843751	-67.10476684570314	899.2454833984377	-617.3038940429689	-169.9822692871094	1063.7763671875	-1013.712890625	-169.0445709228516	1056.201416015625	-760.0532226562501	-357.9265747070313	1146.057861328125	-884.727233886719	-364.0806274414063	1115.421875	-914.2570800781252	-362.3904724121094	1112.2421875	-857.7811279296877	-280.7143859863282	833.4575195312502	-1104.355590820313	-257.3514404296876	751.4302978515626	-1104.21044921875	-210.2333679199219	749.7392578125001	-1097.1484375	-292.0479431152344	701.9619750976564	-1089.911743164063	-308.4846191406251	546.7222290039064	-1075.89794921875	-279.5203857421876	531.5773925781251	-940.3651123046877	-267.2292175292969	382.5713195800782	-1037.164916992188	-319.0884399414063	340.4959716796876	-1098.42724609375	-278.6766052246094	336.3708496093751	-1072.7255859375	-282.6455078125001	256.4510498046876	-1044.847778320313	-339.0193481445313	120.9216995239258	-1091.3447265625	-307.6010437011719	135.3615264892578	-1000.602233886719	-409.6746826171876	107.8964767456055	-1035.81201171875	-198.6555328369141	55.92770004272462	-1016.086730957031	-190.3639068603516	54.70576477050783	-1065.5283203125	-242.9940032958985	42.41003799438477	-1117.261352539063	-291.3613586425782	759.0603027343751	-691.1218261718751	-262.4673156738282	699.0571899414064	-691.2318725585939	-229.1099243164063	695.3441772460939	-695.0678100585939	-300.4525451660157	627.2144775390626	-710.7046508789064	-322.8685302734376	536.2401733398439	-715.5012207031251	-268.9679260253907	530.2850952148439	-844.6053466796877	-271.7168579101563	427.198944091797	-717.9481201171876	-344.7923889160157	357.1321411132813	-684.1682739257814	-299.0018310546876	348.5812988281251	-691.9962768554689	-284.9615478515626	296.9541931152344	-713.7041625976564	-343.6133117675782	122.0472106933594	-689.9316406250001	-303.0707397460938	134.4248046875	-775.350524902344	-403.9545288085939	98.291374206543	-749.1732788085939	-184.5214080810547	54.44282531738283	-756.5308837890626	-183.6173706054688	53.61232757568361	-707.8732910156251	-234.8678131103516	38.82975006103516	-661.3615112304689	
2	0.005	-146.1159973144532	1793.9794921875	-904.6229248046877	-311.7886962890626	1728.474975585938	-958.544616699219	-312.9365234375001	1728.959594726563	-818.0269775390627	-342.8496093750001	1562.429565429688	-881.2692871093752	-360.0882568359376	1229.534912109375	-884.1981201171877	-198.4888305664063	1507.3427734375	-887.3557128906252	-268.5749206542969	1543.76708984375	-1053.156127929688	-287.3459472656251	1311.2783203125	-1159.85791015625	-240.6572265625001	1297.847900390625	-1149.362182617188	-267.9075622558594	1244.707763671875	-1160.129516601563	-247.065658569336	1196.964477539063	-1156.73681640625	-291.6612243652344	1175.427490234375	-1090.400146484375	-127.2720565795899	964.453308105469	-1109.339233398438	-162.1110992431641	943.6533813476565	-1176.115966796875	-83.2410354614258	886.8737792968752	-1129.619995117188	-257.8294982910157	1547.39404296875	-718.6620483398439	-261.0512390136719	1315.711181640625	-603.1922607421876	-218.3027343750001	1296.758422851563	-614.6987915039064	-250.5298156738282	1246.559692382813	-601.4524536132814	-242.2652740478516	1206.667602539063	-606.4594116210939	-282.3566284179688	1190.238525390625	-673.2400512695314	-105.1471557617188	964.961853027344	-646.4781494140626	-159.5451965332032	957.0501708984377	-588.9079589843751	-66.83260345458986	899.436950683594	-617.4459228515626	-170.0850830078125	1063.780395507813	-1014.098388671875	-169.1082916259766	1056.207275390625	-760.4190063476564	-357.9617004394532	1145.982055664063	-885.0274658203127	-364.2060852050782	1115.376098632813	-914.5404052734377	-362.4973754882813	1112.197143554688	-858.0960693359377	-280.5884399414063	833.4226684570315	-1104.61572265625	-257.2739562988282	751.4595336914064	-1104.4462890625	-210.1957397460938	749.7498168945314	-1097.47802734375	-292.0128173828126	701.9381103515626	-1090.201904296875	-308.3767700195313	546.6734008789064	-1076.132568359375	-279.3925476074219	531.5292968750001	-940.6384887695315	-267.2382507324219	382.1964111328126	-1037.4189453125	-317.8771667480469	340.3794250488282	-1098.276977539063	-278.6756591796876	336.2978820800782	-1072.766723632813	-282.6100463867188	256.3159790039063	-1044.917114257813	-339.0805053710938	120.8612289428711	-1091.371826171875	-307.6406250000001	135.3749389648438	-1000.6396484375	-409.6448974609376	107.8540115356446	-1035.838012695313	-198.671859741211	55.94089126586915	-1016.099731445313	-190.3688659667969	54.76926422119142	-1065.483520507813	-243.0107116699219	42.43481826782227	-1117.253051757813	-291.3699035644532	759.0729980468751	-691.4485473632814	-262.4512023925782	699.0919799804689	-691.4089355468751	-228.9936981201172	695.3407592773439	-695.2804565429689	-300.3598327636719	627.2127075195314	-710.9766845703126	-322.6950073242188	536.1808471679689	-715.6767578125001	-268.7120666503907	530.3032226562501	-844.7837524414065	-271.4804687500001	427.1799621582032	-718.1358642578126	-344.6409606933594	357.2082824707032	-684.2869873046876	-298.9860229492188	348.5772705078126	-692.0551757812501	-284.8102111816407	296.9759521484376	-713.8232421875001	-343.5967712402344	122.0837173461914	-689.9194335937501	-303.0454406738282	134.4296417236328	-775.3904418945315	-403.9204406738282	98.33594512939456	-749.1997680664064	-184.6836090087891	54.57994079589845	-756.5468139648439	-183.7384185791016	53.59632110595705	-708.1047363281251	-234.8704681396485	38.8348731994629	-661.3415527343751	
3	0.01	-146.3036346435547	1793.3544921875	-905.3570556640627	-311.9361572265626	1728.694458007813	-958.9692382812502	-312.9412536621094	1729.272338867188	-818.4097900390627	-343.4143676757813	1562.328125	-881.6234130859377	-360.2680969238282	1229.399536132813	-884.5439453125002	-198.8188476562501	1507.361206054688	-887.8162841796877	-269.2912597656251	1543.735229492188	-1053.508911132813	-287.9546813964844	1311.299194335938	-1160.10302734375	-241.1234893798829	1297.84033203125	-1149.884643554688	-268.3835449218751	1244.781860351563	-1160.68408203125	-247.3274536132813	1196.973022460938	-1157.19921875	-291.7959289550782	1175.350708007813	-1090.921875	-127.3514404296875	964.6602172851565	-1109.759155273438	-161.9595336914063	943.8096313476565	-1176.436279296875	-83.06851196289064	887.1147460937502	-1130.108154296875	-258.2696228027344	1547.370239257813	-719.0232543945314	-261.2389526367188	1315.7333984375	-603.5833129882814	-218.4792785644532	1296.84521484375	-614.9854125976564	-250.659652709961	1246.57470703125	-601.7597656250001	-242.3907165527344	1206.739135742188	-606.7070922851564	-282.3651428222657	1190.235961914063	-673.5185546875001	-105.1971054077149	965.023376464844	-646.8746948242189	-159.2720794677735	957.0832519531252	-589.0452880859376	-66.67852783203126	899.6437988281252	-617.5559082031251	-170.2186737060547	1063.81005859375	-1014.50048828125	-169.1571350097657	1056.228759765625	-760.7749633789064	-357.9909973144532	1145.919921875	-885.323669433594	-364.3381652832032	1115.374755859375	-914.9183349609377	-362.5218811035157	1112.11328125	-858.5507812500002	-280.4805908203126	833.3806762695315	-1104.888671875	-257.1468200683594	751.4606323242189	-1104.691284179688	-210.1213378906251	749.7673950195314	-1097.783569335938	-291.9320373535157	701.8430175781251	-1090.515869140625	-308.2093200683594	546.6459960937501	-1076.354736328125	-279.2643127441407	531.5501098632814	-940.8914184570315	-266.9895629882813	382.1544189453126	-1037.558227539063	-318.7957763671876	340.3721618652344	-1098.6669921875	-278.7188110351563	336.2091674804688	-1072.929443359375	-282.6692199707032	256.1199035644532	-1045.047607421875	-339.0569763183594	120.8573684692383	-1091.398559570313	-307.6605834960938	135.349365234375	-1000.656982421875	-409.651580810547	107.806884765625	-1035.8564453125	-198.6836547851563	56.00923538208009	-1016.102661132813	-190.4399871826172	54.76359939575197	-1065.503295898438	-243.0064239501954	42.46063232421876	-1117.289306640625	-291.3380432128907	759.1185302734376	-691.7442626953126	-262.4079895019532	699.1036376953126	-691.6192626953126	-228.9400939941407	695.3652343750001	-695.5025024414064	-300.2381591796876	627.2649536132814	-711.2843627929689	-322.6097717285157	536.1615600585939	-715.8262329101564	-268.6925659179688	530.1939086914064	-844.920837402344	-271.4318847656251	427.185272216797	-718.2520141601564	-344.6163635253907	357.2547607421876	-684.3496093750001	-298.9411926269532	348.5776672363282	-692.0658569335939	-284.6245727539063	297.0113525390626	-713.9230957031251	-343.5874023437501	122.0959014892578	-689.9368896484376	-303.0569152832032	134.4424896240235	-775.3699951171877	-403.9835205078126	98.35926055908206	-749.1390380859376	-184.5264892578125	54.44406509399415	-756.5318603515626	-183.6793823242188	53.54159927368165	-707.8552856445314	-234.8708038330079	38.83518981933594	-661.3416748046876	
4	0.015	-145.96923828125	1792.988647460938	-906.011657714844	-312.2394714355469	1729.083862304688	-959.4132080078127	-313.0463562011719	1729.70361328125	-818.8989868164065	-343.9742431640626	1562.22705078125	-882.016784667969	-360.4451599121094	1229.330932617188	-884.9041137695315	-199.5430603027344	1507.3671875	-888.316833496094	-270.0357055664063	1543.751342773438	-1054.007690429688	-288.5364074707032	1311.296875	-1160.634521484375	-241.539291381836	1297.916381835938	-1150.386962890625	-268.7503356933594	1244.821899414063	-1161.0859375	-247.6732788085938	1197.013427734375	-1157.611694335938	-292.0170898437501	1175.324462890625	-1091.482177734375	-127.0999298095703	965.1334228515627	-1110.235717773438	-161.7409057617188	943.9519042968752	-1176.951049804688	-82.47409820556642	887.6441040039065	-1130.701416015625	-258.7313537597657	1547.329956054688	-719.4813232421876	-261.3904724121094	1315.782836914063	-603.9545288085939	-218.6595611572266	1296.913940429688	-615.3724365234376	-250.8089141845704	1246.619506835938	-602.1049194335939	-242.4407348632813	1206.821655273438	-607.0983886718751	-282.3397827148438	1190.25	-673.8667602539064	-105.0634384155274	965.1985473632815	-647.1289672851564	-158.9310607910157	957.2994384765627	-589.2838745117189	-66.33998107910158	900.0044555664065	-617.7837524414064	-170.4793853759766	1064.0478515625	-1014.845947265625	-169.2054748535157	1056.269287109375	-761.1945190429689	-358.1009216308594	1145.85986328125	-885.629577636719	-364.4584655761719	1115.295532226563	-915.178405761719	-362.5531921386719	1112.035766601563	-858.9338378906252	-280.4355773925782	833.3420410156252	-1105.203979492188	-257.1002807617188	751.4533691406251	-1104.984008789063	-210.0658569335938	749.7726440429689	-1098.07421875	-291.8190612792969	701.8377685546876	-1090.858154296875	-308.1212158203126	546.6159667968751	-1076.533569335938	-279.0402832031251	531.5405883789064	-941.1149902343752	-266.8187561035157	382.3308410644532	-1037.59521484375	-317.6421508789063	340.2580261230469	-1098.535278320313	-278.6658630371094	336.1410522460938	-1073.003540039063	-282.6554565429688	255.9580383300782	-1045.146606445313	-339.0977783203126	120.8172912597657	-1091.450561523438	-307.6753234863282	135.3413391113282	-1000.698852539063	-409.6381835937501	107.8344497680664	-1035.883911132813	-198.6825408935547	55.99515533447267	-1016.103088378906	-190.3729400634766	54.79092025756837	-1065.487060546875	-243.0083770751954	42.43422317504884	-1117.270263671875	-291.3034362792969	759.1408691406251	-692.0311279296876	-262.2447814941407	699.1307373046876	-691.9248046875001	-228.8207550048829	695.4033813476564	-695.6879882812501	-300.2059631347657	627.3107299804689	-711.5513305664064	-322.3827819824219	536.2066040039064	-716.0234375000001	-268.3829345703126	530.1859741210939	-845.098083496094	-271.3248596191407	427.1577453613282	-718.3466796875001	-344.5470275878907	357.3035278320313	-684.4575195312501	-298.8525390625001	348.6019287109376	-692.1403198242189	-284.5845336914063	297.0093994140626	-713.9833984375001	-343.5615539550782	122.1207122802735	-689.9495239257814	-302.9695129394532	134.4358520507813	-775.391784667969	-403.9894409179689	98.37820434570315	-749.1406860351564	-184.6840057373047	54.5840530395508	-756.5175781250001	-183.7986602783203	53.52649688720705	-708.0969848632814	-234.8877105712891	38.83990097045899	-661.3135986328126	
